<mxfile host="Electron" agent="Mozilla/5.0 (Windows NT 10.0; Win64; x64) AppleWebKit/537.36 (KHTML, like Gecko) draw.io/24.7.8 Chrome/128.0.6613.36 Electron/32.0.1 Safari/537.36" version="24.7.8">
  <diagram name="Page-1" id="Wk7hFjbKp91PhMEy-XlR">
    <mxGraphModel dx="1802" dy="909" grid="1" gridSize="10" guides="1" tooltips="1" connect="1" arrows="1" fold="1" page="1" pageScale="1" pageWidth="850" pageHeight="1100" math="0" shadow="0">
      <root>
        <mxCell id="0" />
        <mxCell id="1" parent="0" />
        <mxCell id="PVMqRvBR3xhanhjKJub_-5" style="edgeStyle=orthogonalEdgeStyle;rounded=0;orthogonalLoop=1;jettySize=auto;html=1;exitX=0.5;exitY=0;exitDx=0;exitDy=0;entryX=0.5;entryY=1;entryDx=0;entryDy=0;endArrow=none;endFill=0;" parent="1" source="PVMqRvBR3xhanhjKJub_-1" target="PVMqRvBR3xhanhjKJub_-3" edge="1">
          <mxGeometry relative="1" as="geometry">
            <Array as="points">
              <mxPoint x="350" y="310" />
              <mxPoint x="250" y="310" />
            </Array>
          </mxGeometry>
        </mxCell>
        <mxCell id="PVMqRvBR3xhanhjKJub_-6" style="edgeStyle=orthogonalEdgeStyle;shape=connector;rounded=0;orthogonalLoop=1;jettySize=auto;html=1;exitX=0.5;exitY=0;exitDx=0;exitDy=0;entryX=0.5;entryY=1;entryDx=0;entryDy=0;strokeColor=default;align=center;verticalAlign=middle;fontFamily=Helvetica;fontSize=11;fontColor=default;labelBackgroundColor=default;endArrow=none;endFill=0;" parent="1" source="PVMqRvBR3xhanhjKJub_-1" target="PVMqRvBR3xhanhjKJub_-2" edge="1">
          <mxGeometry relative="1" as="geometry" />
        </mxCell>
        <mxCell id="PVMqRvBR3xhanhjKJub_-17" style="edgeStyle=orthogonalEdgeStyle;shape=connector;rounded=0;orthogonalLoop=1;jettySize=auto;html=1;exitX=1;exitY=0.5;exitDx=0;exitDy=0;entryX=0;entryY=0.5;entryDx=0;entryDy=0;strokeColor=default;align=center;verticalAlign=middle;fontFamily=Helvetica;fontSize=11;fontColor=default;labelBackgroundColor=default;endArrow=none;endFill=0;" parent="1" source="PVMqRvBR3xhanhjKJub_-1" target="PVMqRvBR3xhanhjKJub_-15" edge="1">
          <mxGeometry relative="1" as="geometry" />
        </mxCell>
        <mxCell id="PVMqRvBR3xhanhjKJub_-20" style="edgeStyle=orthogonalEdgeStyle;shape=connector;rounded=0;orthogonalLoop=1;jettySize=auto;html=1;exitX=1;exitY=0.75;exitDx=0;exitDy=0;entryX=0;entryY=0.5;entryDx=0;entryDy=0;strokeColor=default;align=center;verticalAlign=middle;fontFamily=Helvetica;fontSize=11;fontColor=default;labelBackgroundColor=default;endArrow=none;endFill=0;" parent="1" source="PVMqRvBR3xhanhjKJub_-1" target="PVMqRvBR3xhanhjKJub_-19" edge="1">
          <mxGeometry relative="1" as="geometry" />
        </mxCell>
        <mxCell id="PVMqRvBR3xhanhjKJub_-57" style="edgeStyle=orthogonalEdgeStyle;shape=connector;rounded=0;orthogonalLoop=1;jettySize=auto;html=1;exitX=0.5;exitY=1;exitDx=0;exitDy=0;entryX=0.5;entryY=0;entryDx=0;entryDy=0;strokeColor=default;align=center;verticalAlign=middle;fontFamily=Helvetica;fontSize=11;fontColor=#ffffff;labelBackgroundColor=default;endArrow=none;endFill=0;" parent="1" source="PVMqRvBR3xhanhjKJub_-1" target="PVMqRvBR3xhanhjKJub_-55" edge="1">
          <mxGeometry relative="1" as="geometry" />
        </mxCell>
        <mxCell id="PVMqRvBR3xhanhjKJub_-1" value="Employee" style="whiteSpace=wrap;html=1;align=center;fillColor=#a20025;fontColor=#ffffff;strokeColor=#6F0000;" parent="1" vertex="1">
          <mxGeometry x="310" y="330" width="100" height="40" as="geometry" />
        </mxCell>
        <mxCell id="PVMqRvBR3xhanhjKJub_-2" value="Name" style="ellipse;whiteSpace=wrap;html=1;align=center;fillColor=#e3c800;fontColor=#000000;strokeColor=#B09500;" parent="1" vertex="1">
          <mxGeometry x="310" y="260" width="100" height="40" as="geometry" />
        </mxCell>
        <mxCell id="PVMqRvBR3xhanhjKJub_-3" value="&lt;u&gt;ID&lt;/u&gt;" style="ellipse;whiteSpace=wrap;html=1;align=center;fillColor=#e3c800;fontColor=#000000;strokeColor=#B09500;" parent="1" vertex="1">
          <mxGeometry x="200" y="260" width="100" height="40" as="geometry" />
        </mxCell>
        <mxCell id="PVMqRvBR3xhanhjKJub_-7" style="edgeStyle=orthogonalEdgeStyle;shape=connector;rounded=0;orthogonalLoop=1;jettySize=auto;html=1;exitX=0.5;exitY=1;exitDx=0;exitDy=0;strokeColor=default;align=center;verticalAlign=middle;fontFamily=Helvetica;fontSize=11;fontColor=default;labelBackgroundColor=default;endArrow=none;endFill=0;" parent="1" source="PVMqRvBR3xhanhjKJub_-4" edge="1">
          <mxGeometry relative="1" as="geometry">
            <mxPoint x="369" y="329" as="targetPoint" />
            <Array as="points">
              <mxPoint x="470" y="310" />
              <mxPoint x="369" y="310" />
            </Array>
          </mxGeometry>
        </mxCell>
        <mxCell id="PVMqRvBR3xhanhjKJub_-4" value="Position" style="ellipse;whiteSpace=wrap;html=1;align=center;fillColor=#e3c800;fontColor=#000000;strokeColor=#B09500;" parent="1" vertex="1">
          <mxGeometry x="420" y="260" width="100" height="40" as="geometry" />
        </mxCell>
        <mxCell id="PVMqRvBR3xhanhjKJub_-23" style="edgeStyle=orthogonalEdgeStyle;shape=connector;rounded=0;orthogonalLoop=1;jettySize=auto;html=1;exitX=1;exitY=0.5;exitDx=0;exitDy=0;strokeColor=default;align=center;verticalAlign=middle;fontFamily=Helvetica;fontSize=11;fontColor=default;labelBackgroundColor=default;endArrow=none;endFill=0;" parent="1" source="PVMqRvBR3xhanhjKJub_-15" target="PVMqRvBR3xhanhjKJub_-21" edge="1">
          <mxGeometry relative="1" as="geometry" />
        </mxCell>
        <mxCell id="PVMqRvBR3xhanhjKJub_-15" value="Works At" style="shape=rhombus;perimeter=rhombusPerimeter;whiteSpace=wrap;html=1;align=center;fontFamily=Helvetica;fontSize=11;fontColor=#ffffff;labelBackgroundColor=none;fillColor=#60a917;strokeColor=#2D7600;" parent="1" vertex="1">
          <mxGeometry x="485" y="310" width="105" height="50" as="geometry" />
        </mxCell>
        <mxCell id="PVMqRvBR3xhanhjKJub_-22" style="edgeStyle=orthogonalEdgeStyle;shape=connector;rounded=0;orthogonalLoop=1;jettySize=auto;html=1;exitX=1;exitY=0.5;exitDx=0;exitDy=0;entryX=0;entryY=0.75;entryDx=0;entryDy=0;strokeColor=default;align=center;verticalAlign=middle;fontFamily=Helvetica;fontSize=11;fontColor=default;labelBackgroundColor=default;endArrow=none;endFill=0;" parent="1" source="PVMqRvBR3xhanhjKJub_-19" target="PVMqRvBR3xhanhjKJub_-21" edge="1">
          <mxGeometry relative="1" as="geometry" />
        </mxCell>
        <mxCell id="PVMqRvBR3xhanhjKJub_-19" value="Manages" style="shape=rhombus;perimeter=rhombusPerimeter;whiteSpace=wrap;html=1;align=center;fontFamily=Helvetica;fontSize=11;fontColor=#ffffff;labelBackgroundColor=none;fillColor=#60a917;strokeColor=#2D7600;" parent="1" vertex="1">
          <mxGeometry x="485" y="370" width="105" height="50" as="geometry" />
        </mxCell>
        <mxCell id="PVMqRvBR3xhanhjKJub_-21" value="Department" style="whiteSpace=wrap;html=1;align=center;fillColor=#a20025;fontColor=#ffffff;strokeColor=#6F0000;" parent="1" vertex="1">
          <mxGeometry x="650" y="340" width="100" height="40" as="geometry" />
        </mxCell>
        <mxCell id="PVMqRvBR3xhanhjKJub_-24" value="1" style="text;html=1;align=center;verticalAlign=middle;resizable=0;points=[];autosize=1;strokeColor=none;fillColor=none;fontFamily=Helvetica;fontSize=11;fontColor=default;labelBackgroundColor=default;" parent="1" vertex="1">
          <mxGeometry x="575" y="308" width="30" height="30" as="geometry" />
        </mxCell>
        <mxCell id="PVMqRvBR3xhanhjKJub_-25" value="N" style="text;html=1;align=center;verticalAlign=middle;resizable=0;points=[];autosize=1;strokeColor=none;fillColor=none;fontFamily=Helvetica;fontSize=11;fontColor=default;labelBackgroundColor=default;" parent="1" vertex="1">
          <mxGeometry x="470" y="308" width="30" height="30" as="geometry" />
        </mxCell>
        <mxCell id="PVMqRvBR3xhanhjKJub_-26" value="1" style="text;html=1;align=center;verticalAlign=middle;resizable=0;points=[];autosize=1;strokeColor=none;fillColor=none;fontFamily=Helvetica;fontSize=11;fontColor=default;labelBackgroundColor=default;" parent="1" vertex="1">
          <mxGeometry x="465" y="368" width="30" height="30" as="geometry" />
        </mxCell>
        <mxCell id="PVMqRvBR3xhanhjKJub_-27" value="1" style="text;html=1;align=center;verticalAlign=middle;resizable=0;points=[];autosize=1;strokeColor=none;fillColor=none;fontFamily=Helvetica;fontSize=11;fontColor=default;labelBackgroundColor=default;" parent="1" vertex="1">
          <mxGeometry x="575" y="368" width="30" height="30" as="geometry" />
        </mxCell>
        <mxCell id="PVMqRvBR3xhanhjKJub_-40" style="edgeStyle=orthogonalEdgeStyle;shape=connector;rounded=0;orthogonalLoop=1;jettySize=auto;html=1;exitX=0.5;exitY=1;exitDx=0;exitDy=0;strokeColor=default;align=center;verticalAlign=middle;fontFamily=Helvetica;fontSize=11;fontColor=default;labelBackgroundColor=default;endArrow=none;endFill=0;" parent="1" edge="1">
          <mxGeometry relative="1" as="geometry">
            <mxPoint x="360.28571428571433" y="630" as="targetPoint" />
            <mxPoint x="360" y="590" as="sourcePoint" />
          </mxGeometry>
        </mxCell>
        <mxCell id="PVMqRvBR3xhanhjKJub_-53" style="edgeStyle=orthogonalEdgeStyle;shape=connector;rounded=0;orthogonalLoop=1;jettySize=auto;html=1;exitX=0.5;exitY=1;exitDx=0;exitDy=0;strokeColor=default;align=center;verticalAlign=middle;fontFamily=Helvetica;fontSize=11;fontColor=#ffffff;labelBackgroundColor=default;endArrow=none;endFill=0;" parent="1" source="PVMqRvBR3xhanhjKJub_-29" edge="1">
          <mxGeometry relative="1" as="geometry">
            <mxPoint x="700.2857142857142" y="630" as="targetPoint" />
          </mxGeometry>
        </mxCell>
        <mxCell id="PVMqRvBR3xhanhjKJub_-29" value="Building" style="whiteSpace=wrap;html=1;align=center;fillColor=#a20025;fontColor=#ffffff;strokeColor=#6F0000;" parent="1" vertex="1">
          <mxGeometry x="650" y="550" width="100" height="40" as="geometry" />
        </mxCell>
        <mxCell id="PVMqRvBR3xhanhjKJub_-31" style="edgeStyle=orthogonalEdgeStyle;shape=connector;rounded=0;orthogonalLoop=1;jettySize=auto;html=1;exitX=0.5;exitY=1;exitDx=0;exitDy=0;entryX=0.5;entryY=0;entryDx=0;entryDy=0;strokeColor=default;align=center;verticalAlign=middle;fontFamily=Helvetica;fontSize=11;fontColor=default;labelBackgroundColor=default;endArrow=none;endFill=0;" parent="1" source="PVMqRvBR3xhanhjKJub_-30" target="PVMqRvBR3xhanhjKJub_-21" edge="1">
          <mxGeometry relative="1" as="geometry" />
        </mxCell>
        <mxCell id="PVMqRvBR3xhanhjKJub_-30" value="&lt;u&gt;Name&lt;/u&gt;" style="ellipse;whiteSpace=wrap;html=1;align=center;fillColor=#e3c800;fontColor=#000000;strokeColor=#B09500;" parent="1" vertex="1">
          <mxGeometry x="650" y="260" width="100" height="40" as="geometry" />
        </mxCell>
        <mxCell id="PVMqRvBR3xhanhjKJub_-34" style="edgeStyle=orthogonalEdgeStyle;shape=connector;rounded=0;orthogonalLoop=1;jettySize=auto;html=1;exitX=0.5;exitY=0;exitDx=0;exitDy=0;entryX=0.25;entryY=1;entryDx=0;entryDy=0;strokeColor=default;align=center;verticalAlign=middle;fontFamily=Helvetica;fontSize=11;fontColor=default;labelBackgroundColor=default;endArrow=none;endFill=0;" parent="1" source="PVMqRvBR3xhanhjKJub_-32" edge="1">
          <mxGeometry relative="1" as="geometry">
            <mxPoint x="335" y="590" as="targetPoint" />
            <Array as="points">
              <mxPoint x="250" y="610" />
              <mxPoint x="320" y="610" />
              <mxPoint x="335" y="611" />
            </Array>
          </mxGeometry>
        </mxCell>
        <mxCell id="PVMqRvBR3xhanhjKJub_-32" value="Size" style="ellipse;whiteSpace=wrap;html=1;align=center;fillColor=#e3c800;fontColor=#000000;strokeColor=#B09500;" parent="1" vertex="1">
          <mxGeometry x="200" y="630" width="100" height="40" as="geometry" />
        </mxCell>
        <mxCell id="PVMqRvBR3xhanhjKJub_-39" style="edgeStyle=orthogonalEdgeStyle;shape=connector;rounded=0;orthogonalLoop=1;jettySize=auto;html=1;exitX=0.5;exitY=0;exitDx=0;exitDy=0;entryX=0.75;entryY=1;entryDx=0;entryDy=0;strokeColor=default;align=center;verticalAlign=middle;fontFamily=Helvetica;fontSize=11;fontColor=default;labelBackgroundColor=default;endArrow=none;endFill=0;" parent="1" source="PVMqRvBR3xhanhjKJub_-33" edge="1">
          <mxGeometry relative="1" as="geometry">
            <mxPoint x="385" y="590" as="targetPoint" />
          </mxGeometry>
        </mxCell>
        <mxCell id="PVMqRvBR3xhanhjKJub_-33" value="Maximum Occupancy" style="ellipse;whiteSpace=wrap;html=1;align=center;fillColor=#e3c800;fontColor=#000000;strokeColor=#B09500;" parent="1" vertex="1">
          <mxGeometry x="420" y="630" width="100" height="40" as="geometry" />
        </mxCell>
        <mxCell id="PVMqRvBR3xhanhjKJub_-60" style="edgeStyle=orthogonalEdgeStyle;shape=connector;rounded=0;orthogonalLoop=1;jettySize=auto;html=1;exitX=1;exitY=0.5;exitDx=0;exitDy=0;strokeColor=default;align=center;verticalAlign=middle;fontFamily=Helvetica;fontSize=11;fontColor=#ffffff;labelBackgroundColor=default;endArrow=none;endFill=0;" parent="1" source="PVMqRvBR3xhanhjKJub_-36" edge="1">
          <mxGeometry relative="1" as="geometry">
            <mxPoint x="590" y="475" as="targetPoint" />
          </mxGeometry>
        </mxCell>
        <mxCell id="PVMqRvBR3xhanhjKJub_-36" value="Timeslot" style="whiteSpace=wrap;html=1;align=center;fillColor=#a20025;fontColor=#ffffff;strokeColor=#6F0000;" parent="1" vertex="1">
          <mxGeometry x="450" y="455" width="100" height="40" as="geometry" />
        </mxCell>
        <mxCell id="PVMqRvBR3xhanhjKJub_-81" style="edgeStyle=orthogonalEdgeStyle;shape=connector;rounded=0;orthogonalLoop=1;jettySize=auto;html=1;exitX=0.5;exitY=1;exitDx=0;exitDy=0;strokeColor=default;align=center;verticalAlign=middle;fontFamily=Helvetica;fontSize=11;fontColor=#000000;labelBackgroundColor=none;autosize=1;resizable=0;endArrow=none;endFill=0;" parent="1" source="PVMqRvBR3xhanhjKJub_-37" target="PVMqRvBR3xhanhjKJub_-82" edge="1">
          <mxGeometry relative="1" as="geometry">
            <mxPoint x="150.16666666666674" y="470" as="targetPoint" />
          </mxGeometry>
        </mxCell>
        <mxCell id="PVMqRvBR3xhanhjKJub_-37" value="Parking Place" style="whiteSpace=wrap;html=1;align=center;fillColor=#a20025;fontColor=#ffffff;strokeColor=#6F0000;" parent="1" vertex="1">
          <mxGeometry x="100" y="410" width="100" height="40" as="geometry" />
        </mxCell>
        <mxCell id="PVMqRvBR3xhanhjKJub_-45" style="edgeStyle=orthogonalEdgeStyle;shape=connector;rounded=0;orthogonalLoop=1;jettySize=auto;html=1;exitX=1;exitY=0.5;exitDx=0;exitDy=0;entryX=0;entryY=0.5;entryDx=0;entryDy=0;strokeColor=default;align=center;verticalAlign=middle;fontFamily=Helvetica;fontSize=11;fontColor=#ffffff;labelBackgroundColor=default;endArrow=none;endFill=0;" parent="1" source="PVMqRvBR3xhanhjKJub_-43" target="PVMqRvBR3xhanhjKJub_-44" edge="1">
          <mxGeometry relative="1" as="geometry" />
        </mxCell>
        <mxCell id="PVMqRvBR3xhanhjKJub_-49" style="edgeStyle=orthogonalEdgeStyle;shape=connector;rounded=0;orthogonalLoop=1;jettySize=auto;html=1;exitX=0;exitY=0.75;exitDx=0;exitDy=0;entryX=0.5;entryY=1;entryDx=0;entryDy=0;strokeColor=default;align=center;verticalAlign=middle;fontFamily=Helvetica;fontSize=11;fontColor=#ffffff;labelBackgroundColor=default;endArrow=none;endFill=0;" parent="1" source="PVMqRvBR3xhanhjKJub_-43" target="PVMqRvBR3xhanhjKJub_-48" edge="1">
          <mxGeometry relative="1" as="geometry">
            <Array as="points">
              <mxPoint x="285" y="580" />
              <mxPoint x="285" y="590" />
              <mxPoint x="205" y="590" />
            </Array>
          </mxGeometry>
        </mxCell>
        <mxCell id="PVMqRvBR3xhanhjKJub_-43" value="Room" style="shape=ext;margin=3;double=1;whiteSpace=wrap;html=1;align=center;fontFamily=Helvetica;fontSize=11;fontColor=#ffffff;labelBackgroundColor=none;fillColor=#a20025;strokeColor=#6F0000;" parent="1" vertex="1">
          <mxGeometry x="310" y="550" width="100" height="40" as="geometry" />
        </mxCell>
        <mxCell id="PVMqRvBR3xhanhjKJub_-46" style="edgeStyle=orthogonalEdgeStyle;shape=connector;rounded=0;orthogonalLoop=1;jettySize=auto;html=1;exitX=1;exitY=0.5;exitDx=0;exitDy=0;entryX=0;entryY=0.5;entryDx=0;entryDy=0;strokeColor=default;align=center;verticalAlign=middle;fontFamily=Helvetica;fontSize=11;fontColor=#ffffff;labelBackgroundColor=default;endArrow=none;endFill=0;" parent="1" source="PVMqRvBR3xhanhjKJub_-44" target="PVMqRvBR3xhanhjKJub_-29" edge="1">
          <mxGeometry relative="1" as="geometry" />
        </mxCell>
        <mxCell id="PVMqRvBR3xhanhjKJub_-44" value="is_in" style="shape=rhombus;double=1;perimeter=rhombusPerimeter;whiteSpace=wrap;html=1;align=center;strokeColor=#2D7600;verticalAlign=middle;fontFamily=Helvetica;fontSize=11;fontColor=#ffffff;labelBackgroundColor=none;fillColor=#60a917;" parent="1" vertex="1">
          <mxGeometry x="490" y="545" width="95" height="50" as="geometry" />
        </mxCell>
        <mxCell id="PVMqRvBR3xhanhjKJub_-47" style="edgeStyle=orthogonalEdgeStyle;shape=connector;rounded=0;orthogonalLoop=1;jettySize=auto;html=1;entryX=0.193;entryY=0.357;entryDx=0;entryDy=0;entryPerimeter=0;strokeColor=default;align=center;verticalAlign=middle;fontFamily=Helvetica;fontSize=11;fontColor=#ffffff;labelBackgroundColor=default;endArrow=none;endFill=0;" parent="1" target="PVMqRvBR3xhanhjKJub_-44" edge="1">
          <mxGeometry relative="1" as="geometry">
            <mxPoint x="410" y="563" as="sourcePoint" />
          </mxGeometry>
        </mxCell>
        <mxCell id="PVMqRvBR3xhanhjKJub_-50" style="edgeStyle=orthogonalEdgeStyle;shape=connector;rounded=0;orthogonalLoop=1;jettySize=auto;html=1;exitX=0.5;exitY=0;exitDx=0;exitDy=0;entryX=0;entryY=0.25;entryDx=0;entryDy=0;strokeColor=default;align=center;verticalAlign=middle;fontFamily=Helvetica;fontSize=11;fontColor=#ffffff;labelBackgroundColor=default;endArrow=none;endFill=0;" parent="1" source="PVMqRvBR3xhanhjKJub_-48" target="PVMqRvBR3xhanhjKJub_-43" edge="1">
          <mxGeometry relative="1" as="geometry">
            <Array as="points">
              <mxPoint x="205" y="520" />
              <mxPoint x="285" y="520" />
              <mxPoint x="285" y="560" />
            </Array>
          </mxGeometry>
        </mxCell>
        <mxCell id="PVMqRvBR3xhanhjKJub_-48" value="Combines With" style="shape=rhombus;perimeter=rhombusPerimeter;whiteSpace=wrap;html=1;align=center;strokeColor=#2D7600;verticalAlign=middle;fontFamily=Helvetica;fontSize=11;fontColor=#ffffff;labelBackgroundColor=none;fillColor=#60a917;" parent="1" vertex="1">
          <mxGeometry x="150" y="530" width="110" height="50" as="geometry" />
        </mxCell>
        <mxCell id="PVMqRvBR3xhanhjKJub_-51" value="1" style="text;html=1;align=center;verticalAlign=middle;resizable=0;points=[];autosize=1;strokeColor=none;fillColor=none;fontFamily=Helvetica;fontSize=11;fontColor=#ffffff;labelBackgroundColor=default;" parent="1" vertex="1">
          <mxGeometry x="280" y="540" width="30" height="30" as="geometry" />
        </mxCell>
        <mxCell id="PVMqRvBR3xhanhjKJub_-52" value="1" style="text;html=1;align=center;verticalAlign=middle;resizable=0;points=[];autosize=1;strokeColor=none;fillColor=none;fontFamily=Helvetica;fontSize=11;fontColor=#ffffff;labelBackgroundColor=default;" parent="1" vertex="1">
          <mxGeometry x="280" y="560" width="30" height="30" as="geometry" />
        </mxCell>
        <mxCell id="PVMqRvBR3xhanhjKJub_-54" value="&lt;u&gt;Building ID&lt;/u&gt;" style="ellipse;whiteSpace=wrap;html=1;align=center;fillColor=#e3c800;fontColor=#000000;strokeColor=#B09500;" parent="1" vertex="1">
          <mxGeometry x="650" y="630" width="100" height="40" as="geometry" />
        </mxCell>
        <mxCell id="PVMqRvBR3xhanhjKJub_-58" style="edgeStyle=orthogonalEdgeStyle;shape=connector;rounded=0;orthogonalLoop=1;jettySize=auto;html=1;exitX=0.5;exitY=1;exitDx=0;exitDy=0;entryX=0.5;entryY=0;entryDx=0;entryDy=0;strokeColor=default;align=center;verticalAlign=middle;fontFamily=Helvetica;fontSize=11;fontColor=#ffffff;labelBackgroundColor=default;endArrow=none;endFill=0;" parent="1" source="PVMqRvBR3xhanhjKJub_-55" target="PVMqRvBR3xhanhjKJub_-43" edge="1">
          <mxGeometry relative="1" as="geometry" />
        </mxCell>
        <mxCell id="PVMqRvBR3xhanhjKJub_-59" style="edgeStyle=orthogonalEdgeStyle;shape=connector;rounded=0;orthogonalLoop=1;jettySize=auto;html=1;exitX=1;exitY=0.5;exitDx=0;exitDy=0;entryX=0;entryY=0.5;entryDx=0;entryDy=0;strokeColor=default;align=center;verticalAlign=middle;fontFamily=Helvetica;fontSize=11;fontColor=#ffffff;labelBackgroundColor=default;endArrow=none;endFill=0;" parent="1" source="PVMqRvBR3xhanhjKJub_-55" target="PVMqRvBR3xhanhjKJub_-36" edge="1">
          <mxGeometry relative="1" as="geometry" />
        </mxCell>
        <mxCell id="PVMqRvBR3xhanhjKJub_-64" style="edgeStyle=orthogonalEdgeStyle;shape=connector;rounded=0;orthogonalLoop=1;jettySize=auto;html=1;exitX=0;exitY=0;exitDx=0;exitDy=0;entryX=1;entryY=0.5;entryDx=0;entryDy=0;strokeColor=default;align=center;verticalAlign=middle;fontFamily=Helvetica;fontSize=11;fontColor=#000000;labelBackgroundColor=none;endArrow=none;endFill=0;" parent="1" source="PVMqRvBR3xhanhjKJub_-55" target="PVMqRvBR3xhanhjKJub_-63" edge="1">
          <mxGeometry relative="1" as="geometry" />
        </mxCell>
        <mxCell id="PVMqRvBR3xhanhjKJub_-55" value="Reserves" style="shape=rhombus;perimeter=rhombusPerimeter;whiteSpace=wrap;html=1;align=center;strokeColor=#2D7600;verticalAlign=middle;fontFamily=Helvetica;fontSize=11;fontColor=#ffffff;labelBackgroundColor=none;fillColor=#60a917;" parent="1" vertex="1">
          <mxGeometry x="310" y="450" width="100" height="50" as="geometry" />
        </mxCell>
        <mxCell id="PVMqRvBR3xhanhjKJub_-62" value="Datetime" style="ellipse;whiteSpace=wrap;html=1;align=center;strokeColor=#B09500;verticalAlign=middle;fontFamily=Helvetica;fontSize=11;fontColor=#000000;labelBackgroundColor=none;fillColor=#e3c800;" parent="1" vertex="1">
          <mxGeometry x="590" y="455" width="100" height="40" as="geometry" />
        </mxCell>
        <mxCell id="PVMqRvBR3xhanhjKJub_-63" value="People Expected" style="ellipse;whiteSpace=wrap;html=1;align=center;strokeColor=#B09500;verticalAlign=middle;fontFamily=Helvetica;fontSize=11;fontColor=#000000;labelBackgroundColor=none;fillColor=#e3c800;" parent="1" vertex="1">
          <mxGeometry x="240" y="440" width="80" height="30" as="geometry" />
        </mxCell>
        <mxCell id="PVMqRvBR3xhanhjKJub_-66" style="edgeStyle=orthogonalEdgeStyle;shape=connector;rounded=0;orthogonalLoop=1;jettySize=auto;html=1;exitX=1;exitY=0.5;exitDx=0;exitDy=0;entryX=0;entryY=1;entryDx=0;entryDy=0;strokeColor=default;align=center;verticalAlign=middle;fontFamily=Helvetica;fontSize=11;fontColor=#000000;labelBackgroundColor=none;endArrow=none;endFill=0;" parent="1" source="PVMqRvBR3xhanhjKJub_-65" target="PVMqRvBR3xhanhjKJub_-55" edge="1">
          <mxGeometry relative="1" as="geometry" />
        </mxCell>
        <mxCell id="PVMqRvBR3xhanhjKJub_-65" value="Occasion" style="ellipse;whiteSpace=wrap;html=1;align=center;strokeColor=#B09500;verticalAlign=middle;fontFamily=Helvetica;fontSize=11;fontColor=#000000;labelBackgroundColor=none;fillColor=#e3c800;" parent="1" vertex="1">
          <mxGeometry x="240" y="480" width="80" height="30" as="geometry" />
        </mxCell>
        <mxCell id="PVMqRvBR3xhanhjKJub_-69" style="edgeStyle=orthogonalEdgeStyle;shape=connector;rounded=0;orthogonalLoop=1;jettySize=auto;html=1;exitX=1;exitY=0.5;exitDx=0;exitDy=0;entryX=0;entryY=0.5;entryDx=0;entryDy=0;strokeColor=default;align=center;verticalAlign=middle;fontFamily=Helvetica;fontSize=11;fontColor=#000000;labelBackgroundColor=none;endArrow=none;endFill=0;" parent="1" source="PVMqRvBR3xhanhjKJub_-68" target="PVMqRvBR3xhanhjKJub_-1" edge="1">
          <mxGeometry relative="1" as="geometry" />
        </mxCell>
        <mxCell id="PVMqRvBR3xhanhjKJub_-70" style="edgeStyle=orthogonalEdgeStyle;shape=connector;rounded=0;orthogonalLoop=1;jettySize=auto;html=1;exitX=0;exitY=0.5;exitDx=0;exitDy=0;entryX=0.5;entryY=0;entryDx=0;entryDy=0;strokeColor=default;align=center;verticalAlign=middle;fontFamily=Helvetica;fontSize=11;fontColor=#000000;labelBackgroundColor=none;endArrow=none;endFill=0;" parent="1" source="PVMqRvBR3xhanhjKJub_-68" target="PVMqRvBR3xhanhjKJub_-37" edge="1">
          <mxGeometry relative="1" as="geometry" />
        </mxCell>
        <mxCell id="PVMqRvBR3xhanhjKJub_-68" value="Assigned to" style="shape=rhombus;perimeter=rhombusPerimeter;whiteSpace=wrap;html=1;align=center;strokeColor=#2D7600;verticalAlign=middle;fontFamily=Helvetica;fontSize=11;fontColor=#ffffff;labelBackgroundColor=none;fillColor=#60a917;" parent="1" vertex="1">
          <mxGeometry x="180" y="325" width="105" height="50" as="geometry" />
        </mxCell>
        <mxCell id="PVMqRvBR3xhanhjKJub_-71" value="&lt;font color=&quot;#ffffff&quot;&gt;1&lt;/font&gt;" style="text;html=1;align=center;verticalAlign=middle;resizable=0;points=[];autosize=1;strokeColor=none;fillColor=none;fontFamily=Helvetica;fontSize=11;fontColor=#000000;labelBackgroundColor=none;" parent="1" vertex="1">
          <mxGeometry x="285" y="325" width="30" height="30" as="geometry" />
        </mxCell>
        <mxCell id="PVMqRvBR3xhanhjKJub_-72" value="&lt;font color=&quot;#ffffff&quot;&gt;1&lt;/font&gt;" style="text;html=1;align=center;verticalAlign=middle;resizable=0;points=[];autosize=1;strokeColor=none;fillColor=none;fontFamily=Helvetica;fontSize=11;fontColor=#000000;labelBackgroundColor=none;" parent="1" vertex="1">
          <mxGeometry x="140" y="380" width="30" height="30" as="geometry" />
        </mxCell>
        <mxCell id="PVMqRvBR3xhanhjKJub_-73" value="&lt;font color=&quot;#ffffff&quot;&gt;1&lt;/font&gt;" style="text;html=1;align=center;verticalAlign=middle;resizable=0;points=[];autosize=1;strokeColor=none;fillColor=none;fontFamily=Helvetica;fontSize=11;fontColor=#000000;labelBackgroundColor=none;" parent="1" vertex="1">
          <mxGeometry x="620" y="545" width="30" height="30" as="geometry" />
        </mxCell>
        <mxCell id="PVMqRvBR3xhanhjKJub_-74" value="&lt;font color=&quot;#ffffff&quot;&gt;N&lt;/font&gt;" style="text;html=1;align=center;verticalAlign=middle;resizable=0;points=[];autosize=1;strokeColor=none;fillColor=none;fontFamily=Helvetica;fontSize=11;fontColor=#000000;labelBackgroundColor=none;" parent="1" vertex="1">
          <mxGeometry x="405" y="538" width="30" height="30" as="geometry" />
        </mxCell>
        <mxCell id="PVMqRvBR3xhanhjKJub_-75" value="&lt;font color=&quot;#ffffff&quot;&gt;1&lt;/font&gt;" style="text;html=1;align=center;verticalAlign=middle;resizable=0;points=[];autosize=1;strokeColor=none;fillColor=none;fontFamily=Helvetica;fontSize=11;fontColor=#000000;labelBackgroundColor=none;" parent="1" vertex="1">
          <mxGeometry x="355" y="428" width="30" height="30" as="geometry" />
        </mxCell>
        <mxCell id="PVMqRvBR3xhanhjKJub_-76" value="&lt;font color=&quot;#ffffff&quot;&gt;N&lt;/font&gt;" style="text;html=1;align=center;verticalAlign=middle;resizable=0;points=[];autosize=1;strokeColor=none;fillColor=none;fontFamily=Helvetica;fontSize=11;fontColor=#000000;labelBackgroundColor=none;" parent="1" vertex="1">
          <mxGeometry x="355" y="528" width="30" height="30" as="geometry" />
        </mxCell>
        <mxCell id="PVMqRvBR3xhanhjKJub_-77" value="&lt;font color=&quot;#ffffff&quot;&gt;M&lt;/font&gt;" style="text;html=1;align=center;verticalAlign=middle;resizable=0;points=[];autosize=1;strokeColor=none;fillColor=none;fontFamily=Helvetica;fontSize=11;fontColor=#000000;labelBackgroundColor=none;" parent="1" vertex="1">
          <mxGeometry x="420" y="450" width="30" height="30" as="geometry" />
        </mxCell>
        <mxCell id="PVMqRvBR3xhanhjKJub_-79" value="&lt;span style=&quot;border-bottom: 1px dotted&quot;&gt;Room No.&lt;/span&gt;" style="ellipse;whiteSpace=wrap;html=1;align=center;verticalAlign=middle;fontFamily=Helvetica;fontSize=11;fontColor=#000000;labelBackgroundColor=none;autosize=1;resizable=0;fillColor=#e3c800;strokeColor=#B09500;" parent="1" vertex="1">
          <mxGeometry x="325" y="630" width="70" height="30" as="geometry" />
        </mxCell>
        <mxCell id="PVMqRvBR3xhanhjKJub_-82" value="&lt;u&gt;Parking ID&lt;/u&gt;" style="ellipse;whiteSpace=wrap;html=1;align=center;verticalAlign=middle;fontFamily=Helvetica;fontSize=11;fontColor=#000000;labelBackgroundColor=none;autosize=1;resizable=0;fillColor=#e3c800;strokeColor=#B09500;" parent="1" vertex="1">
          <mxGeometry x="114.99666666666674" y="475" width="70" height="30" as="geometry" />
        </mxCell>
        <mxCell id="PVMqRvBR3xhanhjKJub_-85" style="edgeStyle=orthogonalEdgeStyle;shape=connector;rounded=0;orthogonalLoop=1;jettySize=auto;html=1;exitX=1;exitY=0.5;exitDx=0;exitDy=0;entryX=0;entryY=0;entryDx=0;entryDy=0;strokeColor=default;align=center;verticalAlign=middle;fontFamily=Helvetica;fontSize=11;fontColor=#000000;labelBackgroundColor=none;autosize=1;resizable=0;endArrow=none;endFill=0;" parent="1" source="PVMqRvBR3xhanhjKJub_-84" target="PVMqRvBR3xhanhjKJub_-68" edge="1">
          <mxGeometry relative="1" as="geometry" />
        </mxCell>
        <mxCell id="PVMqRvBR3xhanhjKJub_-84" value="Licence Place" style="ellipse;whiteSpace=wrap;html=1;align=center;strokeColor=#B09500;verticalAlign=middle;fontFamily=Helvetica;fontSize=11;fontColor=#000000;labelBackgroundColor=none;autosize=1;resizable=0;fillColor=#e3c800;" parent="1" vertex="1">
          <mxGeometry x="105" y="300" width="90" height="30" as="geometry" />
        </mxCell>
      </root>
    </mxGraphModel>
  </diagram>
</mxfile>
